<svg width="17" height="17" viewBox="0 0 17 17" fill="none" xmlns="http://www.w3.org/2000/svg">
<path d="M5.50757 4.21967V14.5227" stroke="white" stroke-miterlimit="10" stroke-linecap="round" stroke-linejoin="round"/>
<path d="M10.0151 7.43939V1" stroke="white" stroke-miterlimit="10" stroke-linecap="round" stroke-linejoin="round"/>
<path d="M9.37121 11.7628L5.50758 14.5227L1 11.303V1L5.50758 4.2197L10.0152 1L14.5227 4.2197V7.43939" stroke="white" stroke-miterlimit="10" stroke-linecap="round" stroke-linejoin="round"/>
<path d="M15.8106 11.3031C15.8106 12.7255 13.2348 15.8106 13.2348 15.8106C13.2348 15.8106 10.6591 12.7255 10.6591 11.3031C10.6591 9.88059 11.8117 8.72729 13.2348 8.72729C14.6573 8.72729 15.8106 9.88059 15.8106 11.3031Z" stroke="white" stroke-width="0.5" stroke-miterlimit="10" stroke-linecap="round" stroke-linejoin="round"/>
<path d="M13.2349 12.269C13.7683 12.269 14.2008 11.8365 14.2008 11.3031C14.2008 10.7696 13.7683 10.3372 13.2349 10.3372C12.7014 10.3372 12.269 10.7696 12.269 11.3031C12.269 11.8365 12.7014 12.269 13.2349 12.269Z" stroke="white" stroke-width="0.5" stroke-miterlimit="10" stroke-linecap="round" stroke-linejoin="round"/>
</svg>
