<svg width="16" height="14" viewBox="0 0 16 14" fill="none" xmlns="http://www.w3.org/2000/svg">
<path d="M1.275 2.55C1.97916 2.55 2.55 1.97916 2.55 1.275C2.55 0.570837 1.97916 0 1.275 0C0.570837 0 0 0.570837 0 1.275C0 1.97916 0.570837 2.55 1.275 2.55Z" fill="white"/>
<path d="M5.09998 1.32361H14.6625" stroke="white" stroke-width="1.36364" stroke-miterlimit="10" stroke-linecap="round" stroke-linejoin="round"/>
<path d="M1.275 7.84395C1.97916 7.84395 2.55 7.27311 2.55 6.56895C2.55 5.86478 1.97916 5.29395 1.275 5.29395C0.570837 5.29395 0 5.86478 0 6.56895C0 7.27311 0.570837 7.84395 1.275 7.84395Z" fill="white"/>
<path d="M5.09998 6.61768H14.6625" stroke="white" stroke-width="1.36364" stroke-miterlimit="10" stroke-linecap="round" stroke-linejoin="round"/>
<path d="M1.275 13.138C1.97916 13.138 2.55 12.5672 2.55 11.863C2.55 11.1588 1.97916 10.588 1.275 10.588C0.570837 10.588 0 11.1588 0 11.863C0 12.5672 0.570837 13.138 1.275 13.138Z" fill="white"/>
<path d="M5.09998 11.9117H14.6625" stroke="white" stroke-width="1.36364" stroke-miterlimit="10" stroke-linecap="round" stroke-linejoin="round"/>
</svg>
